<svg width="75" height="75" viewBox="0 0 75 75" fill="none" xmlns="http://www.w3.org/2000/svg">
<g filter="url(#filter0_d)">
<path d="M4 15C4 6.71573 10.7157 0 19 0H56C64.2843 0 71 6.71573 71 15V52C71 60.2843 64.2843 67 56 67H19C10.7157 67 4 60.2843 4 52V15Z" fill="#9D270E"/>
<path d="M37.6854 22.0316H36.9633C36.7639 22.0316 36.6013 22.2486 36.6013 22.5147V27.3334C36.6013 27.5995 36.7639 27.8165 36.9633 27.8165H37.6854C37.8848 27.8165 38.0475 27.5995 38.0475 27.3334V22.5118C38.0475 22.2486 37.8848 22.0316 37.6854 22.0316Z" fill="#CACACA"/>
<path d="M46.8869 24.9253L53.4935 16.7238C53.9963 16.099 54.0974 15.261 53.7548 14.5346C53.4096 13.8057 52.7021 13.3544 51.901 13.3544H19.4597C18.555 13.3544 17.8179 14.0933 17.8179 15.0056L17.8006 36.4937H51.901C52.6997 36.4937 53.4096 36.0424 53.7523 35.316C54.0949 34.5896 53.9939 33.7491 53.491 33.1268L46.8869 24.9253ZM27.2545 27.4046H28.4846V26.579C27.8042 26.579 27.2545 26.0236 27.2545 25.3393C27.2545 24.655 27.8067 24.0997 28.4846 24.0997H29.7147C30.3951 24.0997 30.9448 24.655 30.9448 25.3393V28.6442C30.9448 29.3285 30.3951 29.8839 29.7147 29.8839H27.2545C25.6694 29.8839 24.3826 28.5897 24.3826 26.9905V22.8576C24.3826 21.2609 25.6669 19.9642 27.2545 19.9642H29.7147C30.3951 19.9642 30.9448 20.5196 30.9448 21.2039C30.9448 21.8882 30.3926 22.4435 29.7147 22.4435H27.2545C27.0277 22.4435 26.8452 22.6295 26.8452 22.8576V26.9905C26.8428 27.2186 27.0277 27.4046 27.2545 27.4046ZM40.7906 26.9905C40.7906 28.5872 39.5062 29.8839 37.9187 29.8839H37.0978C35.5127 29.8839 34.2259 28.5897 34.2259 26.9905V22.8576C34.2259 21.2609 35.5102 19.9642 37.0978 19.9642H37.9187C39.5038 19.9642 40.7906 21.2584 40.7906 22.8576V26.9905Z" fill="#CACACA"/>
<path d="M19.2468 53.8481C18.4489 53.8481 17.8006 53.0914 17.8006 52.16V15.0425C17.8028 14.1086 18.4489 13.3544 19.2468 13.3544C20.0469 13.3544 20.693 14.1086 20.693 15.0425V52.1626C20.693 53.0939 20.0469 53.8481 19.2468 53.8481Z" fill="#E3E3E3"/>
</g>
<defs>
<filter id="filter0_d" x="0" y="0" width="75" height="75" filterUnits="userSpaceOnUse" color-interpolation-filters="sRGB">
<feFlood flood-opacity="0" result="BackgroundImageFix"/>
<feColorMatrix in="SourceAlpha" type="matrix" values="0 0 0 0 0 0 0 0 0 0 0 0 0 0 0 0 0 0 127 0"/>
<feOffset dy="4"/>
<feGaussianBlur stdDeviation="2"/>
<feColorMatrix type="matrix" values="0 0 0 0 0 0 0 0 0 0 0 0 0 0 0 0 0 0 0.25 0"/>
<feBlend mode="normal" in2="BackgroundImageFix" result="effect1_dropShadow"/>
<feBlend mode="normal" in="SourceGraphic" in2="effect1_dropShadow" result="shape"/>
</filter>
</defs>
</svg>
