<svg width="75" height="75" viewBox="0 0 75 75" fill="none" xmlns="http://www.w3.org/2000/svg">
<g filter="url(#filter0_d)">
<path d="M4 15C4 6.71573 10.7157 0 19 0H56C64.2843 0 71 6.71573 71 15V52C71 60.2843 64.2843 67 56 67H19C10.7157 67 4 60.2843 4 52V15Z" fill="#9D270E"/>
</g>
<path d="M55.4167 27.6667H44.3333V16.5833C44.3333 15.7082 43.6252 15 42.75 15H33.25C32.3748 15 31.6667 15.7082 31.6667 16.5833V27.6667H20.5833C19.7082 27.6667 19 28.3748 19 29.25V38.75C19 39.6252 19.7082 40.3333 20.5833 40.3333H31.6667V51.4167C31.6667 52.2918 32.3748 53 33.25 53H42.75C43.6252 53 44.3333 52.2918 44.3333 51.4167V40.3333H55.4167C56.2918 40.3333 57 39.6252 57 38.75V29.25C57 28.3748 56.2918 27.6667 55.4167 27.6667Z" fill="url(#paint0_linear)"/>
<defs>
<filter id="filter0_d" x="0" y="0" width="75" height="75" filterUnits="userSpaceOnUse" color-interpolation-filters="sRGB">
<feFlood flood-opacity="0" result="BackgroundImageFix"/>
<feColorMatrix in="SourceAlpha" type="matrix" values="0 0 0 0 0 0 0 0 0 0 0 0 0 0 0 0 0 0 127 0"/>
<feOffset dy="4"/>
<feGaussianBlur stdDeviation="2"/>
<feColorMatrix type="matrix" values="0 0 0 0 0 0 0 0 0 0 0 0 0 0 0 0 0 0 0.25 0"/>
<feBlend mode="normal" in2="BackgroundImageFix" result="effect1_dropShadow"/>
<feBlend mode="normal" in="SourceGraphic" in2="effect1_dropShadow" result="shape"/>
</filter>
<linearGradient id="paint0_linear" x1="38" y1="53" x2="38" y2="15" gradientUnits="userSpaceOnUse">
<stop stop-color="#E3E3E3"/>
</linearGradient>
</defs>
</svg>
