<svg width="75" height="75" viewBox="0 0 75 75" fill="none" xmlns="http://www.w3.org/2000/svg">
<g filter="url(#filter0_d)">
<path d="M4 15C4 6.71573 10.7157 0 19 0H56C64.2843 0 71 6.71573 71 15V52C71 60.2843 64.2843 67 56 67H19C10.7157 67 4 60.2843 4 52V15Z" fill="#9D270E"/>
</g>
<g clip-path="url(#clip0)">
<path d="M46.1897 60H28.8103C27.3373 60 25.9503 59.4258 24.9059 58.3834L12.6166 46.0962C11.5742 45.0497 11 43.6652 11 42.1897V24.8103C11 23.3348 11.5742 21.9503 12.6166 20.9059L24.9059 8.61864C25.9503 7.57419 27.3348 7 28.8103 7H46.1897C47.6627 7 49.0497 7.57419 50.0941 8.61662L62.3834 20.9038C63.4258 21.9503 64 23.3348 64 24.8103V42.1876C64 43.6627 63.4258 45.0497 62.3834 46.0941L50.0941 58.3814C49.0497 59.4258 47.6652 60 46.1897 60ZM28.8103 9.2082C27.9377 9.2082 27.0854 9.56161 26.4671 10.1778L14.1778 22.4671C13.5527 23.0922 13.2082 23.9248 13.2082 24.8103V42.1876C13.2082 43.0732 13.5527 43.9057 14.1778 44.5329L26.4671 56.8201C27.0854 57.4384 27.9377 57.7918 28.8103 57.7918H46.1897C47.0623 57.7918 47.9146 57.4384 48.5329 56.8222L60.8222 44.5349C61.4473 43.9078 61.7918 43.0752 61.7918 42.1897V24.8103C61.7918 23.9248 61.4473 23.0922 60.8222 22.4651L48.5329 10.1778C47.9146 9.56161 47.0623 9.2082 46.1897 9.2082H28.8103Z" fill="#E3E3E3"/>
<path d="M22.0394 42.3332C19.7054 42.3332 17.7665 40.2839 17.625 37.6714C17.5919 37.062 18.0601 36.5408 18.6695 36.51C19.257 36.4259 19.798 36.9407 19.8332 37.55C19.9104 38.9944 20.8801 40.125 22.0394 40.125C23.2585 40.125 24.25 38.886 24.25 37.3644C24.25 35.5384 23.1239 34.9597 21.9047 34.6108L21.578 34.5137C18.3116 33.5797 17.625 31.3448 17.625 29.6356C17.625 26.8972 19.606 24.6668 22.0438 24.6668C24.3758 24.6668 26.3147 26.7137 26.4562 29.3262C26.4893 29.9336 26.0231 30.4568 25.4138 30.4879C24.8088 30.5563 24.2832 30.0549 24.252 29.4455C24.1728 28.0056 23.2031 26.875 22.0438 26.875C20.8247 26.875 19.8332 28.114 19.8332 29.6356C19.8332 31.4661 20.9642 32.0427 22.1829 32.3892C22.1829 32.3912 22.5121 32.4887 22.5121 32.4887C25.1311 33.2416 26.4582 34.8825 26.4582 37.3644C26.4582 40.1028 24.4777 42.3332 22.0394 42.3332Z" fill="#E3E3E3"/>
<path d="M36.3957 26.875H27.5625C26.9531 26.875 26.4582 26.3805 26.4582 25.7707C26.4582 25.1613 26.9531 24.6668 27.5625 24.6668H36.3957C37.0055 24.6668 37.5 25.1613 37.5 25.7707C37.5 26.3805 37.0055 26.875 36.3957 26.875Z" fill="#E3E3E3"/>
<path d="M31.9793 42.3332C31.3695 42.3332 30.875 41.8387 30.875 41.2293V25.7707C30.875 25.1613 31.3695 24.6668 31.9793 24.6668C32.5887 24.6668 33.0832 25.1613 33.0832 25.7707V41.2293C33.0832 41.8387 32.5887 42.3332 31.9793 42.3332Z" fill="#E3E3E3"/>
<path d="M41.9168 42.3332C39.4809 42.3332 37.5 40.3526 37.5 37.9168V29.0832C37.5 26.6473 39.4809 24.6668 41.9168 24.6668C44.3527 24.6668 46.3332 26.6473 46.3332 29.0832V37.9168C46.3332 40.3526 44.3527 42.3332 41.9168 42.3332ZM41.9168 26.875C40.6997 26.875 39.7082 27.8645 39.7082 29.0832V37.9168C39.7082 39.1355 40.6997 40.125 41.9168 40.125C43.1335 40.125 44.125 39.1355 44.125 37.9168V29.0832C44.125 27.8645 43.1335 26.875 41.9168 26.875Z" fill="#E3E3E3"/>
<path d="M49.6457 42.3332C49.0363 42.3332 48.5418 41.8387 48.5418 41.2293V25.7707C48.5418 25.1613 49.0363 24.6668 49.6457 24.6668H54.0625C55.889 24.6668 57.375 26.1528 57.375 27.9793V32.3957C57.375 34.2222 55.889 35.7082 54.0625 35.7082H50.75V41.2293C50.75 41.8387 50.2555 42.3332 49.6457 42.3332ZM50.75 33.5H54.0625C54.6719 33.5 55.1668 33.003 55.1668 32.3957V27.9793C55.1668 27.372 54.6719 26.875 54.0625 26.875H50.75V33.5Z" fill="#E3E3E3"/>
</g>
<defs>
<filter id="filter0_d" x="0" y="0" width="75" height="75" filterUnits="userSpaceOnUse" color-interpolation-filters="sRGB">
<feFlood flood-opacity="0" result="BackgroundImageFix"/>
<feColorMatrix in="SourceAlpha" type="matrix" values="0 0 0 0 0 0 0 0 0 0 0 0 0 0 0 0 0 0 127 0"/>
<feOffset dy="4"/>
<feGaussianBlur stdDeviation="2"/>
<feColorMatrix type="matrix" values="0 0 0 0 0 0 0 0 0 0 0 0 0 0 0 0 0 0 0.25 0"/>
<feBlend mode="normal" in2="BackgroundImageFix" result="effect1_dropShadow"/>
<feBlend mode="normal" in="SourceGraphic" in2="effect1_dropShadow" result="shape"/>
</filter>
<clipPath id="clip0">
<rect width="53" height="53" fill="white" transform="translate(11 7)"/>
</clipPath>
</defs>
</svg>
